<svg width="999" height="380" viewBox="0 0 999 380" fill="none" xmlns="http://www.w3.org/2000/svg">
<path d="M411.375 159.214C420.253 159.214 428.175 161.058 435.14 164.746C442.242 168.433 447.774 173.896 451.735 181.135C455.696 188.374 457.676 197.115 457.676 207.359V273.941H434.526V210.841C434.526 200.734 431.999 193.018 426.945 187.691C421.892 182.228 414.995 179.496 406.254 179.496C397.512 179.496 390.547 182.228 385.357 187.691C380.303 193.018 377.777 200.734 377.777 210.841V273.941H354.421V161.058H377.777V173.965C381.601 169.321 386.449 165.702 392.322 163.107C398.332 160.512 404.683 159.214 411.375 159.214ZM544.421 159.214C553.299 159.214 561.22 161.058 568.186 164.746C575.288 168.433 580.819 173.896 584.78 181.135C588.741 188.374 590.722 197.115 590.722 207.359V273.941H567.571V210.841C567.571 200.734 565.044 193.018 559.991 187.691C554.938 182.228 548.04 179.496 539.299 179.496C530.558 179.496 523.592 182.228 518.402 187.691C513.349 193.018 510.822 200.734 510.822 210.841V273.941H487.467V161.058H510.822V173.965C514.646 169.321 519.495 165.702 525.368 163.107C531.377 160.512 537.728 159.214 544.421 159.214ZM723.972 214.734C723.972 218.968 723.699 222.792 723.152 226.207H636.902C637.585 235.221 640.931 242.46 646.941 247.923C652.95 253.386 660.326 256.118 669.067 256.118C681.632 256.118 690.51 250.859 695.7 240.343H720.899C717.484 250.723 711.27 259.259 702.256 265.951C693.378 272.507 682.315 275.785 669.067 275.785C658.277 275.785 648.58 273.395 639.975 268.615C631.507 263.698 624.815 256.869 619.898 248.128C615.118 239.25 612.727 229.007 612.727 217.397C612.727 205.788 615.049 195.613 619.693 186.872C624.473 177.994 631.097 171.165 639.565 166.385C648.17 161.604 658.004 159.214 669.067 159.214C679.72 159.214 689.212 161.536 697.544 166.18C705.875 170.823 712.363 177.379 717.006 185.847C721.65 194.179 723.972 203.808 723.972 214.734ZM699.592 207.359C699.456 198.754 696.383 191.857 690.373 186.667C684.364 181.477 676.92 178.882 668.042 178.882C659.984 178.882 653.087 181.477 647.35 186.667C641.614 191.72 638.2 198.617 637.107 207.359H699.592ZM739.171 217.397C739.171 205.788 741.493 195.613 746.136 186.872C750.917 177.994 757.472 171.165 765.804 166.385C774.135 161.604 783.696 159.214 794.486 159.214C808.144 159.214 819.412 162.492 828.289 169.048C837.304 175.467 843.381 184.686 846.523 196.705H821.324C819.275 191.106 815.997 186.735 811.49 183.594C806.983 180.452 801.315 178.882 794.486 178.882C784.925 178.882 777.277 182.296 771.54 189.125C765.94 195.818 763.141 205.242 763.141 217.397C763.141 229.553 765.94 239.045 771.54 245.874C777.277 252.703 784.925 256.118 794.486 256.118C808.007 256.118 816.953 250.176 821.324 238.294H846.523C843.245 249.767 837.099 258.918 828.084 265.747C819.07 272.439 807.87 275.785 794.486 275.785C783.696 275.785 774.135 273.395 765.804 268.615C757.472 263.698 750.917 256.869 746.136 248.128C741.493 239.25 739.171 229.007 739.171 217.397ZM897.046 180.111V242.596C897.046 246.83 898.002 249.903 899.914 251.815C901.962 253.591 905.377 254.479 910.157 254.479H924.498V273.941H906.06C895.543 273.941 887.485 271.483 881.885 266.566C876.285 261.649 873.485 253.659 873.485 242.596V180.111H860.169V161.058H873.485V132.991H897.046V161.058H924.498V180.111H897.046Z" fill="#2B29AF"/>
<path fill-rule="evenodd" clip-rule="evenodd" d="M255.477 153.367C243.848 152.982 232.098 156.145 221.953 162.895C210.56 170.485 202.599 181.691 198.931 194.221C197.919 194.098 196.705 194.153 195.266 194.557C189.888 196.079 185.845 200.47 184.028 204.338C181.669 209.38 180.675 216.045 181.723 222.928C182.764 229.789 185.672 235.444 189.309 238.955C192.957 242.469 197.074 243.609 201.165 242.753C207.257 241.456 210.276 240.486 209.425 234.829L205.296 207.407C206.129 192.565 213.835 178.594 226.727 170.003C243.983 158.511 266.604 159.247 283.062 171.844C294.511 180.595 301.159 193.708 301.926 207.473L299.04 226.654C292.599 244.224 276.633 256.395 258.157 258.122H245.856C242.681 258.122 240.126 260.671 240.126 263.832V266.844C240.126 270.007 242.681 272.555 245.856 272.555H261.368C264.541 272.555 267.087 270.007 267.087 266.844V265.27C281.018 261.88 293.177 253.343 301.096 241.44L306.064 242.755C310.108 243.801 314.277 242.469 317.923 238.958C321.559 235.444 324.465 229.792 325.508 222.93C326.561 216.048 325.536 209.392 323.206 204.341C320.866 199.289 317.381 196.081 313.356 194.929C311.672 194.446 309.84 194.269 308.272 194.221C304.957 182.89 298.129 172.589 288.288 165.067C278.611 157.666 267.106 153.746 255.477 153.367Z" fill="#2B29AF"/>
<path fill-rule="evenodd" clip-rule="evenodd" d="M273.627 202.699C277.727 202.699 281.052 206.012 281.061 210.112C281.052 214.198 277.727 217.52 273.627 217.52C269.517 217.52 266.184 214.198 266.184 210.112C266.184 206.012 269.517 202.699 273.627 202.699ZM253.608 202.699C257.718 202.699 261.042 206.012 261.042 210.112C261.042 214.198 257.718 217.52 253.608 217.52C249.496 217.52 246.172 214.198 246.172 210.112C246.172 206.012 249.496 202.699 253.608 202.699ZM233.597 202.699C237.697 202.699 241.031 206.012 241.031 210.112C241.031 214.198 237.697 217.52 233.597 217.52C229.489 217.52 226.163 214.198 226.163 210.112C226.163 206.012 229.489 202.699 233.597 202.699ZM253.608 170.867C231.808 170.867 214.24 187.803 214.24 210.112C214.24 220.825 218.305 230.294 224.925 237.243L222.576 247.741C221.8 251.196 224.203 253.519 227.32 251.789L237.602 246.071C242.49 248.186 247.897 249.355 253.608 249.355C275.416 249.355 292.974 232.431 292.974 210.112C292.974 187.803 275.416 170.867 253.608 170.867Z" fill="#2B29AF"/>
<path fill-rule="evenodd" clip-rule="evenodd" d="M146.979 146.701C146.548 146.431 145.983 146.526 145.666 146.924L99.1037 205.231C98.5135 205.97 97.3223 205.553 97.3223 204.607V81.0008C97.3223 80.3092 96.6369 79.8264 95.9856 80.0592L67.6634 90.1841C67.2655 90.3263 67 90.7032 67 91.1257V298.767C67 299.459 67.6853 299.942 68.3366 299.709L96.6589 289.584C97.0567 289.442 97.3223 289.065 97.3223 288.643V219.952C97.3223 218.966 98.592 218.579 99.1361 219.401C102.816 224.96 106.459 230.844 110.066 237.052C114.363 244.181 118.611 250.822 122.811 256.974C125.838 261.466 129.061 266.154 132.479 271.036C135.994 275.919 139.803 280.363 143.904 284.367C148.104 288.37 152.693 291.691 157.674 294.327C162.654 296.964 168.172 298.283 174.227 298.283C179.207 298.283 184.041 297.013 188.729 294.474C193.514 291.935 198.006 288.81 202.205 285.099C206.404 281.29 210.164 277.189 213.484 272.794C216.689 268.674 219.335 264.812 221.424 261.207C221.664 260.792 221.57 260.265 221.204 259.955L217.755 257.028C217.337 256.674 216.711 256.722 216.346 257.13C215.163 258.45 213.672 260.009 211.873 261.808C209.725 263.859 207.381 265.861 204.842 267.814C202.303 269.767 199.715 271.476 197.078 272.941C194.441 274.308 192.098 274.992 190.047 274.992C187.215 274.992 184.627 274.454 182.283 273.38C179.939 272.208 177.742 270.792 175.691 269.132C173.641 267.374 171.736 265.47 169.979 263.419C168.221 261.271 166.609 259.22 165.145 257.267C157.527 247.501 150.057 237.199 142.732 226.359C135.564 215.749 128.395 205.56 121.226 195.792C120.953 195.42 120.97 194.909 121.268 194.555L155.804 153.589C156.195 153.124 156.085 152.421 155.571 152.097L146.979 146.701Z" fill="#2B29AF"/>
</svg>
