<svg width="2240" height="588" viewBox="0 0 2240 588" fill="none" xmlns="http://www.w3.org/2000/svg">
<path d="M860.242 229.73C881.909 229.73 901.242 234.23 918.242 243.23C935.576 252.23 949.076 265.564 958.742 283.23C968.409 300.897 973.242 322.23 973.242 347.23V509.73H916.742V355.73C916.742 331.064 910.576 312.23 898.242 299.23C885.909 285.897 869.076 279.23 847.742 279.23C826.409 279.23 809.409 285.897 796.742 299.23C784.409 312.23 778.242 331.064 778.242 355.73V509.73H721.242V234.23H778.242V265.73C787.576 254.397 799.409 245.564 813.742 239.23C828.409 232.897 843.909 229.73 860.242 229.73ZM1184.95 229.73C1206.62 229.73 1225.95 234.23 1242.95 243.23C1260.28 252.23 1273.78 265.564 1283.45 283.23C1293.12 300.897 1297.95 322.23 1297.95 347.23V509.73H1241.45V355.73C1241.45 331.064 1235.28 312.23 1222.95 299.23C1210.62 285.897 1193.78 279.23 1172.45 279.23C1151.12 279.23 1134.12 285.897 1121.45 299.23C1109.12 312.23 1102.95 331.064 1102.95 355.73V509.73H1045.95V234.23H1102.95V265.73C1112.28 254.397 1124.12 245.564 1138.45 239.23C1153.12 232.897 1168.62 229.73 1184.95 229.73ZM1623.16 365.23C1623.16 375.564 1622.49 384.897 1621.16 393.23H1410.66C1412.32 415.23 1420.49 432.897 1435.16 446.23C1449.82 459.564 1467.82 466.23 1489.16 466.23C1519.82 466.23 1541.49 453.397 1554.16 427.73H1615.66C1607.32 453.064 1592.16 473.897 1570.16 490.23C1548.49 506.23 1521.49 514.23 1489.16 514.23C1462.82 514.23 1439.16 508.397 1418.16 496.73C1397.49 484.73 1381.16 468.064 1369.16 446.73C1357.49 425.064 1351.66 400.064 1351.66 371.73C1351.66 343.397 1357.32 318.564 1368.66 297.23C1380.32 275.564 1396.49 258.897 1417.16 247.23C1438.16 235.564 1462.16 229.73 1489.16 229.73C1515.16 229.73 1538.32 235.397 1558.66 246.73C1578.99 258.064 1594.82 274.064 1606.16 294.73C1617.49 315.064 1623.16 338.564 1623.16 365.23ZM1563.66 347.23C1563.32 326.23 1555.82 309.397 1541.16 296.73C1526.49 284.064 1508.32 277.73 1486.66 277.73C1466.99 277.73 1450.16 284.064 1436.16 296.73C1422.16 309.064 1413.82 325.897 1411.16 347.23H1563.66ZM1660.25 371.73C1660.25 343.397 1665.92 318.564 1677.25 297.23C1688.92 275.564 1704.92 258.897 1725.25 247.23C1745.58 235.564 1768.92 229.73 1795.25 229.73C1828.58 229.73 1856.08 237.73 1877.75 253.73C1899.75 269.397 1914.58 291.897 1922.25 321.23H1860.75C1855.75 307.564 1847.75 296.897 1836.75 289.23C1825.75 281.564 1811.92 277.73 1795.25 277.73C1771.92 277.73 1753.25 286.064 1739.25 302.73C1725.58 319.064 1718.75 342.064 1718.75 371.73C1718.75 401.397 1725.58 424.564 1739.25 441.23C1753.25 457.897 1771.92 466.23 1795.25 466.23C1828.25 466.23 1850.08 451.73 1860.75 422.73H1922.25C1914.25 450.73 1899.25 473.064 1877.25 489.73C1855.25 506.064 1827.92 514.23 1795.25 514.23C1768.92 514.23 1745.58 508.397 1725.25 496.73C1704.92 484.73 1688.92 468.064 1677.25 446.73C1665.92 425.064 1660.25 400.064 1660.25 371.73ZM2045.55 280.73V433.23C2045.55 443.564 2047.89 451.064 2052.55 455.73C2057.55 460.064 2065.89 462.23 2077.55 462.23H2112.55V509.73H2067.55C2041.89 509.73 2022.22 503.73 2008.55 491.73C1994.89 479.73 1988.05 460.23 1988.05 433.23V280.73H1955.55V234.23H1988.05V165.73H2045.55V234.23H2112.55V280.73H2045.55Z" fill="white"/>
<path fill-rule="evenodd" clip-rule="evenodd" d="M495.145 227.805C467.644 226.893 439.857 234.375 415.864 250.342C388.922 268.296 370.094 294.801 361.421 324.44C359.026 324.149 356.156 324.278 352.754 325.235C340.035 328.834 330.473 339.221 326.175 348.371C320.597 360.297 318.247 376.063 320.725 392.343C323.187 408.573 330.064 421.949 338.664 430.254C347.292 438.565 357.028 441.262 366.703 439.236C381.111 436.17 388.251 433.875 386.236 420.494L376.472 355.63C378.442 320.523 396.666 287.475 427.156 267.154C467.963 239.972 521.461 241.712 560.382 271.508C587.458 292.21 603.181 323.226 604.994 355.786L598.168 401.158C582.937 442.718 545.179 471.506 501.485 475.592H472.394C464.885 475.592 458.842 481.619 458.842 489.096V496.22C458.842 503.703 464.885 509.73 472.394 509.73H509.078C516.581 509.73 522.602 503.703 522.602 496.22V492.499C555.548 484.479 584.303 464.287 603.03 436.13L614.781 439.242C624.343 441.716 634.202 438.565 642.825 430.26C651.425 421.949 658.296 408.579 660.764 392.349C663.254 376.068 660.831 360.325 655.319 348.377C649.786 336.428 641.543 328.839 632.026 326.114C628.042 324.972 623.711 324.552 620.001 324.44C612.162 297.638 596.014 273.271 572.742 255.48C549.857 237.974 522.647 228.7 495.145 227.805Z" fill="white"/>
<path fill-rule="evenodd" clip-rule="evenodd" d="M538.069 344.495C547.765 344.495 555.627 352.33 555.649 362.029C555.627 371.694 547.765 379.552 538.069 379.552C528.349 379.552 520.466 371.694 520.466 362.029C520.466 352.33 528.349 344.495 538.069 344.495ZM490.726 344.495C500.445 344.495 508.307 352.33 508.307 362.029C508.307 371.694 500.445 379.552 490.726 379.552C481.001 379.552 473.14 371.694 473.14 362.029C473.14 352.33 481.001 344.495 490.726 344.495ZM443.4 344.495C453.097 344.495 460.981 352.33 460.981 362.029C460.981 371.694 453.097 379.552 443.4 379.552C433.686 379.552 425.819 371.694 425.819 362.029C425.819 352.33 433.686 344.495 443.4 344.495ZM490.726 269.199C439.17 269.199 397.624 309.259 397.624 362.029C397.624 387.37 407.237 409.768 422.893 426.205L417.337 451.036C415.501 459.207 421.186 464.703 428.555 460.612L452.873 447.085C464.433 452.089 477.219 454.853 490.726 454.853C542.299 454.853 583.822 414.821 583.822 362.029C583.822 309.259 542.299 269.199 490.726 269.199Z" fill="white"/>
<path d="M80.8594 337.743C80.8594 338.689 82.0507 339.106 82.6408 338.367L202.075 188.804C202.37 188.434 202.885 188.322 203.308 188.536L230.628 202.358C231.204 202.649 231.357 203.402 230.941 203.895L143.867 307.183C143.569 307.536 143.552 308.047 143.826 308.419C163.201 334.789 182.577 362.312 201.953 390.988C221.484 419.894 241.406 447.369 261.719 473.41C265.625 478.618 269.922 484.087 274.609 489.816C279.297 495.285 284.375 500.363 289.844 505.051C295.312 509.478 301.172 513.254 307.422 516.379C313.672 519.243 320.573 520.676 328.125 520.676C333.594 520.676 339.844 518.853 346.875 515.207C353.906 511.301 360.807 506.743 367.578 501.535C374.349 496.327 380.599 490.988 386.328 485.52C391.698 480.15 396.038 475.58 399.349 471.812C399.711 471.4 400.337 471.352 400.755 471.707L412.261 481.47C412.626 481.78 412.721 482.305 412.484 482.722C406.811 492.675 399.525 503.373 390.625 514.816C381.771 526.535 371.745 537.473 360.547 547.629C349.349 557.525 337.37 565.858 324.609 572.629C312.109 579.4 299.219 582.785 285.938 582.785C269.792 582.785 255.078 579.269 241.797 572.238C228.516 565.207 216.276 556.353 205.078 545.676C194.141 534.999 183.984 523.15 174.609 510.129C165.495 497.108 156.901 484.608 148.828 472.629C137.63 456.223 126.302 438.514 114.844 419.504C104.24 401.255 93.5192 384.058 82.6818 367.911C82.1325 367.092 80.8594 367.482 80.8594 368.468V558.253C80.8594 558.675 80.5938 559.052 80.196 559.194L1.33662 587.385C0.685328 587.618 0 587.135 0 586.444V29.1928C0 28.7702 0.265532 28.3934 0.663375 28.2511L79.5228 0.0598578C80.174 -0.172972 80.8594 0.309836 80.8594 1.0015V337.743Z" fill="white"/>
</svg>
